<?xml version="1.0" encoding="UTF-8"?>
<svg width="764px" height="757px" viewBox="0 0 764 757" version="1.1" xmlns="http://www.w3.org/2000/svg" xmlns:xlink="http://www.w3.org/1999/xlink">
    <title>blackblobby</title>
    <defs>
        <linearGradient x1="50%" y1="-8.45517423%" x2="50%" y2="100%" id="linearGradient-1">
            <stop stop-color="#D04424" offset="0%"></stop>
            <stop stop-color="#62388F" offset="100%"></stop>
        </linearGradient>
    </defs>
    <g id="Page-1" stroke="none" stroke-width="1" fill="none" fill-rule="evenodd">
        <g id="blackblobby" fill="url(#linearGradient-1)" fill-rule="nonzero">
            <path d="M529.411378,756.715649 C518.79167,755.164128 512.036872,751.66944 512.036872,747.726713 C512.036872,744.76613 514.50813,743.451477 520.073313,743.451477 C534.638174,743.451477 547.369363,749.547662 543.232308,754.540859 C541.605031,756.504936 535.039918,757.53798 529.411378,756.715649 L529.411378,756.715649 Z M222.396099,755.766735 C220.618854,754.859182 220.038084,752.637539 220.982008,750.357286 C222.317193,747.131851 230.746865,744.293732 240.87002,743.66131 C248.138784,743.207252 251.060192,744.129484 251.708471,747.082921 C252.333638,749.931037 251.237494,751.238263 246.089077,753.784318 C241.41628,756.095196 241.340505,756.109311 232.59781,756.297425 C226.796857,756.422037 223.326163,756.241808 222.396099,755.766735 Z M182.805362,744.805344 C176.770996,742.717923 167.459843,734.70754 166.105837,730.438746 C165.724743,729.237335 167.090991,725.863386 168.248382,725.147644 C169.217353,724.548416 177.527944,728.71027 181.739684,731.903919 C185.762055,734.953983 188.735176,738.280164 190.080986,741.235713 C190.811338,742.839683 190.738552,743.092743 189.154898,744.455798 C187.12264,746.204972 186.888664,746.217856 182.805362,744.805344 L182.805362,744.805344 Z M574.495216,744.178695 C572.596744,742.079622 573.235103,740.317529 577.349116,736.30088 C581.499046,732.249241 588.64018,727.644875 592.374295,726.613203 C594.194775,726.110216 594.96122,726.182413 596.162514,726.970036 C598.147738,728.27163 598.074214,730.150062 595.903948,733.574419 C593.50122,737.3655 589.530491,740.643948 584.262254,743.186484 C579.318157,745.572551 576.055618,745.904003 574.495251,744.178695 L574.495216,744.178695 Z M208.292787,740.059752 C193.852671,737.413514 182.697785,731.347426 171.288906,719.93687 C165.22024,713.867296 164.426038,712.789124 161.396841,706.507499 C158.556134,700.616712 158.047269,699.890972 157.696569,701.229773 C157.07675,703.595811 156.20234,696.579998 156.226226,689.432534 C156.257887,679.898721 159.034006,672.609643 164.626348,667.37539 C167.708102,664.490982 169.62944,663.948922 171.617056,665.403217 C172.482531,666.036449 172.833442,667.607119 173.247077,672.698878 C174.130317,683.571351 176.812085,690.059042 182.56115,695.231165 C186.202039,698.506692 190.595163,700.790077 195.85763,702.142219 C208.973818,705.512331 227.403343,698.45991 241.229867,684.779591 C247.392601,678.682033 250.210864,674.467589 255.832967,662.942031 C263.212087,647.814528 267.09821,633.611685 267.187706,621.443216 C267.244696,613.720567 266.702446,612.139935 262.830711,608.738389 C260.537953,606.724045 259.171036,606.521568 255.14198,607.599459 C254.63002,607.736391 254.839441,607.571298 255.607364,607.230306 C256.375252,606.890264 257.003514,606.399843 257.003514,606.140306 C257.003514,605.350395 252.615281,604.323756 247.602549,603.940945 C241.454907,603.471434 234.513168,604.71741 217.290284,609.381547 C193.148774,615.919364 182.628271,617.524954 163.615408,617.573179 C154.1266,617.59782 150.273405,617.33346 143.873036,616.222058 C129.350847,613.70008 120.5252,610.975027 109.630252,605.64904 C100.027007,600.95449 92.4858879,595.588338 85.1244277,588.210941 C77.9309474,581.00191 73.0717722,574.276823 68.411823,565.080729 C59.8480769,548.180783 56.2152923,533.070563 52.853228,500.366339 C50.8162702,480.551994 49.5558509,475.100762 45.0098677,466.444335 C41.6254767,459.9998 37.5454188,455.826964 31.897614,453.033938 C27.5141228,450.866117 26.7385903,450.690535 20.6301969,450.482813 C15.1773543,450.297304 13.4488463,450.479293 10.3879182,451.556551 C5.40697776,453.310724 1.97016855,455.654901 1.97016855,457.298121 C1.97016855,458.391289 1.8166824,458.479679 1.03938746,457.834197 C-2.3058296,455.056167 2.82038261,446.745837 10.746171,442.098138 C17.0184705,438.420018 20.1325859,437.715399 29.8935274,437.765701 C37.9388013,437.807238 39.4164371,437.988523 43.8552072,439.479674 C58.586043,444.428165 69.8093702,454.484185 77.2741196,469.422694 C80.9042094,476.687308 83.5080564,483.406763 89.1577749,500.089589 C95.2914515,518.201576 99.4880998,527.447304 104.784023,534.516199 C113.478593,546.121523 122.589436,552.136534 135.071522,554.512111 C141.454337,555.726899 156.882034,555.308711 162.374361,553.772045 C166.925368,552.498753 179.806244,546.979231 181.878606,545.414369 L183.387787,544.274771 L176.91224,541.218371 C169.447881,537.69524 166.066402,534.995074 164.401061,531.228036 C163.228262,528.575039 163.229107,528.545928 164.56007,525.795073 C165.783175,523.266935 166.093173,523.029821 168.169686,523.034115 C172.171759,523.041155 178.270819,524.283435 180.909881,525.62653 C182.319153,526.343716 185.63819,529.036947 188.285588,531.611445 L193.098996,536.292373 L194.944453,534.52324 C196.991627,532.560676 200.23925,528.090603 199.852984,527.767035 C199.716841,527.652983 196.534088,525.811195 192.779957,523.673894 C158.884214,504.376546 136.796632,482.574153 123.248515,455.040115 C116.7869,441.908088 113.39842,430.01204 111.752568,414.681145 C110.434867,402.406896 111.944646,383.540937 115.273709,370.678796 C116.569282,365.673315 122.085707,350.176553 127.127743,337.378196 C137.110429,312.038979 139.676001,301.489792 138.906284,288.947452 C137.838107,271.542548 131.654019,258.508344 119.419769,247.875647 C114.813285,243.872163 105.479547,238.743724 99.812943,237.102582 C97.8257143,236.52708 94.8246608,236.151907 93.141977,236.268599 C90.6670964,236.44038 90.0833354,236.293239 90.083652,235.490409 C90.0841445,234.189802 91.7592649,232.718856 94.5855841,231.537193 C96.2251735,230.851688 99.045055,230.582153 104.576889,230.582153 C114.066997,230.582153 119.975563,232.089462 130.127003,237.100188 C142.320304,243.11872 151.392873,250.756429 157.518106,260.159273 C166.746799,274.326175 171.517007,290.76284 171.459102,308.195554 C171.427441,318.087607 170.413229,325.906215 166.71257,344.829093 C162.344389,367.165205 162.004946,369.471049 161.628249,379.366376 C160.59096,406.616764 168.699306,425.023032 186.99895,436.958788 C195.075389,442.226587 202.398012,445.429071 202.398012,443.69352 C202.398012,443.42916 201.11862,440.984307 199.554912,438.260557 C191.914306,424.951785 188.333502,416.313698 185.030894,403.223736 C178.009334,375.39394 179.952342,350.494453 190.769053,329.690396 C195.183987,321.199027 200.098921,315.365863 218.820467,296.398314 C238.020799,276.945695 241.489206,272.657188 245.162672,263.827608 C247.796843,257.496068 248.517486,252.801377 248.087106,244.776231 C247.53388,234.461307 245.421379,229.416682 233.822779,210.713141 C224.173274,195.152595 221.581775,187.962924 221.513528,176.563245 C221.464629,168.426139 222.359759,163.963563 225.316065,157.602138 C229.895989,147.746905 239.938444,139.827975 249.04978,138.887016 C252.229719,138.55859 252.700625,138.671938 254.141559,140.113913 C255.50939,141.482564 255.643739,141.94845 255.111304,143.476773 C254.771475,144.452511 253.224512,146.77782 251.67389,148.644109 C244.347785,157.461616 242.444915,166.39511 245.808876,176.178709 C248.203583,183.143375 251.372546,187.65231 264.001294,202.063402 C273.535658,212.943408 278.552541,220.02399 282.668242,228.408982 C288.555665,240.403559 290.513308,248.144371 290.509228,259.413152 C290.502192,277.888449 284.979294,293.024049 267.496437,322.476437 C258.957675,336.861163 256.841163,341.065997 255.476287,346.356572 C254.251142,351.105578 254.171004,359.730853 255.352105,359.730853 C255.808834,359.730853 257.875884,357.565426 259.945573,354.918836 C266.02634,347.142998 273.132506,339.536759 277.791196,335.817242 C294.078176,322.813769 314.102121,313.075719 336.015883,307.501424 C352.250693,303.37171 354.672488,303.063982 373.28054,302.766322 C392.366681,302.461129 397.352923,302.847989 411.823293,305.758833 C423.182323,308.043696 431.585294,310.454158 439.647767,313.740561 C453.10273,319.225023 470.697667,329.470073 481.011176,337.825285 C486.30344,342.112665 499.300372,355.24265 503.30941,360.351764 C504.783236,362.23002 506.29903,363.766757 506.677803,363.766757 C507.947415,363.766757 509.152367,360.082194 509.419059,355.384511 C509.928276,346.414266 506.816022,338.832597 493.541528,316.705791 C483.949927,300.717904 480.015785,292.902887 476.973959,283.795042 C473.861881,274.47673 472.944446,269.002441 472.944446,259.750765 C472.944446,248.035671 474.755463,240.563442 480.390125,229.029893 C483.731536,222.190403 487.397931,217.074461 497.123,205.681435 C506.323339,194.90309 513.522976,185.10981 515.988991,180.019037 C521.571236,168.495239 520.500668,159.726063 512.119825,148.325258 C507.229129,141.672298 507.943545,138.869486 514.459723,139.145392 C522.823821,139.499514 534.502559,148.497989 539.05944,158.099494 C543.080193,166.571362 543.993617,177.420707 541.509801,187.203744 C540.116993,192.689649 536.071333,200.748925 529.396708,211.334052 C518.188209,229.109272 516.064415,234.80413 516.082321,247.036208 C516.089357,252.760719 516.411245,256.281632 517.184867,259.143899 C518.490854,263.976402 521.756806,271.063462 524.551182,275.128618 C525.667589,276.752758 534.156467,285.625601 543.415344,294.846054 C560.274828,311.635575 565.445232,317.422519 570.321821,324.961032 C576.035882,333.794133 580.102685,344.883831 582.256662,357.506077 C583.944588,367.39718 583.612427,385.193485 581.562228,394.711387 C578.707449,407.964717 573.243898,421.700266 565.061113,436.195629 C563.200775,439.49115 561.678683,442.634497 561.678683,443.180852 C561.678683,444.691187 563.441751,444.387015 568.361188,442.027948 C584.157034,434.453284 595.975573,420.547854 600.140314,404.637304 C603.930081,390.15933 603.356663,379.299107 597.047935,346.070915 C592.834472,323.878353 592.493411,321.068501 592.525916,308.816465 C592.570242,292.157857 594.179331,284.005087 599.845021,271.734781 C606.17957,258.015917 618.760122,244.76905 632.317983,237.542031 C642.725913,231.994032 655.366656,229.259791 664.569634,230.56582 C669.775357,231.304584 673.687161,233.071676 674.165068,234.90044 C674.468663,236.061722 674.215726,236.170317 671.207566,236.170317 C661.12156,236.170317 645.450459,245.28566 637.530918,255.758862 C629.152995,266.838211 625.592138,278.187306 625.592138,293.809806 C625.592138,305.664987 627.561988,313.196459 636.906279,337.067758 C648.748599,367.320583 652.139507,380.613338 652.717569,399.049562 C653.13145,412.250443 652.353571,420.059722 649.49056,431.445637 C641.326983,463.911445 620.825131,491.21048 588.671243,512.429064 C584.234533,515.356875 576.765038,519.970992 572.072365,522.682668 C567.379693,525.394344 563.540217,527.778722 563.540217,527.981268 C563.540217,528.183674 565.046161,529.8377 566.886729,531.656538 L570.233205,534.963534 L574.488075,531.443431 C580.262538,526.666193 586.300915,523.780694 591.599793,523.266477 C596.377388,522.802809 598.203145,523.586454 599.872847,526.817276 C600.815188,528.640689 600.785849,528.885829 599.249932,532.027134 C596.926708,536.77857 593.058773,539.471801 584.987329,541.95812 C582.619886,542.68738 580.576511,543.603381 580.446525,543.99362 C579.990464,545.362694 594.256197,551.748619 602.150092,553.709035 C608.303575,555.237217 618.103435,555.930748 624.372902,555.281712 C635.22838,554.157919 645.317728,549.568091 653.246275,542.146692 C662.007227,533.946119 665.619271,526.939564 674.304764,501.297688 C686.353831,465.725847 696.003723,450.916807 712.575584,442.566136 C719.160185,439.248122 724.801426,437.893129 733.562449,437.525207 C740.77285,437.222478 741.66091,437.314705 746.17628,438.835953 C751.38707,440.591534 756.563103,443.592739 759.29778,446.444164 C761.976946,449.237682 765.105242,456.592375 763.614319,456.592375 C763.419779,456.592375 762.000727,455.724916 760.460729,454.664731 C755.679792,451.373294 751.389005,450.140519 744.731794,450.145658 C740.126717,450.149178 738.075814,450.449795 735.35869,451.519554 C729.979639,453.637284 726.304661,456.398312 722.932821,460.85515 C715.905456,470.143893 714.198463,476.238319 710.946337,503.649856 C708.325885,525.736956 705.107038,542.703995 701.868949,551.498304 C699.775444,557.184046 694.113096,568.452953 690.902622,573.32291 C684.631255,582.83599 673.557878,593.904849 664.623141,599.591682 C658.432615,603.531874 646.533235,609.157316 640.174342,611.149941 C626.765534,615.351642 605.94883,617.924908 591.773859,617.132955 C577.17315,616.317206 566.248651,614.273821 542.752852,607.96379 L528.480892,604.13089 L519.173116,604.13793 C510.913922,604.14497 509.445901,604.309007 506.142202,605.593669 C501.6618,607.335839 498.147977,610.647165 497.216295,614.005308 C492.901199,629.558005 509.607127,672.965174 525.529758,687.572511 C533.362089,694.757817 543.543783,700.002876 553.740885,702.105329 C559.661552,703.326065 563.34536,703.338667 568.361153,702.155314 C581.687571,699.011369 590.178173,687.914067 590.213387,673.594216 C590.223941,669.378259 591.060639,665.855375 592.227915,665.114006 C596.821734,662.196403 604.422482,671.122012 606.766251,682.186542 C608.657546,691.115073 606.849273,699.721233 600.93828,709.921401 C597.962168,715.057197 587.019376,726.145839 581.213533,729.909076 C567.915329,738.528683 556.952872,741.425658 540.043117,740.788906 C533.015259,740.524194 529.700725,740.094319 525.378312,738.886572 C506.32151,733.561923 488.974796,723.020656 469.392665,704.865266 C458.324812,694.603777 448.785417,684.010976 434.451577,666.065771 C423.263024,652.058329 414.394811,643.161057 406.199466,637.721124 C388.867492,626.216476 379.352125,625.298574 363.735376,633.624745 C353.107936,639.290809 344.725721,647.340264 328.895364,667.081638 C311.679551,688.550748 297.526918,703.58518 285.298016,713.395356 C265.736148,729.088083 247.903999,738.075399 231.913542,740.300879 C225.615087,741.177455 213.733226,741.055624 208.293069,740.058696 L208.292787,740.059752 Z M318.745191,480.887847 C329.154282,476.130287 336.709473,453.238315 334.689035,432.578512 C333.312409,418.50183 329.580124,407.647943 324.084103,401.738041 C314.993944,391.963383 304.266941,395.768756 297.088834,411.314553 C293.541661,418.996791 292.675271,424.549226 292.736729,439.206972 C292.785628,450.850664 292.9274,452.449425 294.40112,457.964547 C296.104524,464.339278 300.402805,473.396152 303.513757,477.165725 C307.27021,481.717465 313.56462,483.255645 318.745191,480.887847 L318.745191,480.887847 Z M447.88114,480.501797 C449.588379,479.650531 451.718716,478.183633 452.615218,477.242041 C455.434994,474.280507 458.637905,468.305026 460.685607,462.185573 L462.661156,456.281902 L462.675228,440.138321 C462.689299,425.149193 462.588335,423.639526 461.269332,419.027487 C455.087777,397.414686 442.669752,390.259301 431.702968,401.991031 C424.016559,410.213535 420.057018,427.327785 421.479095,446.181036 C422.502453,459.74762 425.707088,469.130948 432.063694,477.173293 C435.880374,482.002065 442.203173,483.332664 447.880401,480.501797 L447.88114,480.501797 Z M280.741978,737.80055 C279.083111,737.186503 277.48067,734.851548 277.48067,733.04841 C277.48067,729.007472 281.504871,723.553213 288.789008,717.721563 C295.711293,712.179548 298.788474,710.647915 303.968235,710.166224 L308.307922,709.762645 L309.338034,712.338762 C309.904628,713.755603 310.368182,715.479152 310.368182,716.168846 C310.368182,719.238235 305.73454,725.68365 300.221281,730.283263 C294.184558,735.319616 284.321973,739.125692 280.741978,737.80055 L280.741978,737.80055 Z M476.667268,736.973572 C471.357907,735.492911 467.127909,732.807001 461.934005,727.618404 C458.405477,724.093478 456.311656,721.400001 455.183922,718.935189 C453.60966,715.494394 453.586371,715.28368 454.556011,713.249025 C455.911319,710.405204 458.09161,709.617159 462.134385,710.509927 C471.329834,712.540569 486.595567,726.724544 486.595567,733.237756 C486.595567,733.974584 485.910842,735.316765 485.073898,736.220375 C483.359799,738.071069 481.27319,738.258022 476.667268,736.973572 Z M327.889138,693.367869 C326.688161,692.778287 325.703746,691.735597 325.470649,690.80629 C324.858323,688.364992 326.286381,682.072984 328.451686,677.671869 C331.075796,672.338208 338.788624,664.427726 342.423815,663.341739 C347.716044,661.760685 349.773737,663.832582 349.323902,670.289438 C348.721074,678.942556 338.879351,691.789736 331.155547,694.006064 C330.472968,694.201781 329.003082,693.914541 327.889138,693.367869 L327.889138,693.367869 Z M430.913867,693.4784 C424.325572,690.612614 414.615348,675.968103 414.615348,668.897729 C414.615348,666.585726 416.070318,663.643588 417.481595,663.101668 C420.67455,661.875651 429.004982,667.453501 433.291407,673.687534 C436.691497,678.63247 439.515846,688.109574 438.522636,691.240882 C438.10696,692.551381 435.246236,694.421401 433.727135,694.375639 C433.283598,694.361559 432.01761,693.958507 430.913867,693.4784 L430.913867,693.4784 Z M142.828008,638.164693 C134.567688,636.732679 127.987167,634.105063 126.717872,631.73188 C125.481997,629.421143 125.956914,626.929895 127.953817,625.248553 C130.430703,623.163068 133.059738,622.670887 141.276718,622.754349 C146.574329,622.808206 149.005377,623.13276 152.135783,624.204244 C156.229463,625.605386 159.492987,627.341431 161.149779,628.999259 C162.092753,629.942822 162.357651,632.683892 161.677324,634.457918 C160.869613,636.564031 156.711732,637.941166 150.399663,638.193241 C147.088471,638.325597 143.681205,638.312572 142.828008,638.16508 L142.828008,638.164693 Z M606.666025,637.584967 C603.891173,636.602647 601.391597,634.096228 601.391597,632.296082 C601.391597,629.098561 606.989637,625.350108 614.807968,623.312426 C622.203024,621.385064 633.833144,622.549197 636.795395,625.513335 C638.111232,626.829995 638.381759,629.818387 637.358365,631.73188 C636.388514,633.545191 630.139028,636.434879 624.801383,637.538079 C618.964582,638.744454 610.006768,638.767616 606.666025,637.584896 L606.666025,637.584967 Z M558.575786,636.868907 C540.884001,633.635305 528.379119,623.229 536.10222,618.166915 C539.85023,615.71027 553.007894,617.36933 560.740106,621.273477 C572.97411,627.450695 574.119645,635.638174 562.919413,636.850251 C561.383636,637.0164 559.429019,637.024848 558.575786,636.867851 L558.575786,636.868907 Z M196.348202,635.729943 C193.989236,634.703973 192.766026,632.443609 193.337298,630.166032 C194.984205,623.600195 212.278643,615.784051 222.368554,617.04548 C231.866297,618.232882 232.72952,623.919468 224.276806,629.616579 C215.690377,635.40384 202.325121,638.329363 196.348202,635.729943 Z M667.560591,615.499521 C662.950272,611.870788 668.271735,602.95426 678.20918,597.656927 C685.190355,593.935509 689.478434,593.782948 691.700834,597.176855 C692.666218,598.65118 692.638461,598.912196 691.176069,602.108485 C688.639062,607.653457 682.094072,613.293332 675.508169,615.609525 C671.22695,617.115178 669.58437,617.092439 667.560591,615.499697 L667.560591,615.499521 Z M85.2122698,614.251011 C80.1878938,611.738749 75.0527391,606.975591 73.0645605,602.983336 C71.0650191,598.968306 71.0661026,597.884291 73.0715963,595.87748 C74.4882563,594.459934 75.0245255,594.314554 77.6771306,594.628899 C82.7134322,595.225768 90.0683843,599.900711 94.6585454,605.422698 C97.7974303,609.198783 98.5158215,613.217614 96.3952642,615.137901 C94.4947166,616.85895 89.6612221,616.475646 85.2121642,614.251011 L85.2122698,614.251011 Z M56.1415254,575.755935 C53.2234065,574.31125 51.3424325,572.093901 48.8105056,567.113835 C46.6120443,562.78967 45.9209802,555.587292 47.4766079,553.211609 C49.011983,550.866868 51.7524935,550.570159 54.8814122,552.40987 C59.0275716,554.847683 62.0782873,559.746223 63.3795494,566.05527 C65.0747253,574.274218 61.857669,578.585817 56.1415254,575.755935 Z M703.968574,576.422009 C700.082205,574.854085 699.199387,567.825987 702.08347,561.415034 C704.057155,557.027824 708.15196,552.503048 710.999563,551.562652 C717.914284,549.279161 720.225512,557.528242 715.52809,567.725805 C713.536394,572.049513 709.678273,576.42743 707.859587,576.42743 C707.376579,576.42743 706.609465,576.549578 706.154952,576.699182 C705.700439,576.848434 704.716551,576.723823 703.968574,576.42215 L703.968574,576.422009 Z M44.3910508,530.176581 C40.4941047,528.537022 37.9602746,522.922633 37.9602746,515.927449 C37.9602746,510.908309 38.7280501,508.493307 41.1951245,505.752379 C43.4566639,503.239799 43.0771137,503.154014 47.3363878,507.140496 C50.3006123,509.914866 51.9128818,515.561252 51.4778929,521.644625 C51.0103952,528.182618 48.0688752,531.723948 44.3910508,530.176581 Z M715.752849,529.083272 C712.939757,525.992832 712.128142,521.888779 713.110059,515.719446 C713.91974,510.632192 715.995057,506.898665 718.876114,505.346124 C720.891803,504.259925 721.137634,504.250104 722.583493,505.197927 C725.109101,506.853784 726.332593,511.029507 725.940312,516.654597 C725.507223,522.864622 724.634888,525.656979 722.294708,528.323986 C720.040224,530.893309 717.652728,531.170376 715.752849,529.083131 L715.752849,529.083272 Z M137.67646,510.320875 C132.414027,508.475601 126.461347,502.863676 123.824396,497.261784 C122.118318,493.637415 122.002368,491.975891 123.282639,489.498513 C124.902001,486.365057 129.067515,485.94356 133.866746,488.427556 C136.459933,489.769737 142.414513,496.193996 144.095051,499.462658 C147.859173,506.783804 144.378946,512.671107 137.67646,510.320875 L137.67646,510.320875 Z M621.439533,509.984353 C620.691521,509.68268 619.646211,508.774458 619.116591,507.965644 C618.250307,506.642719 618.248372,506.131072 619.099002,502.869977 C620.677204,496.807127 626.321012,490.587421 632.64265,487.944422 C637.756416,485.806452 641.467066,487.897253 641.359946,492.856304 C641.238226,498.487097 633.891401,507.495182 627.698623,509.606575 C624.418846,510.724806 623.426973,510.784683 621.441292,509.984353 L621.439533,509.984353 Z M38.7588529,488.201742 C34.8689236,485.708664 31.8534432,476.374441 33.5859194,472.189249 C34.5168623,469.940361 37.1221938,468.718991 39.2423466,469.53752 C42.9555856,470.971082 45.9923796,476.673755 46.0133956,482.252556 C46.0253564,485.432793 45.807563,486.090102 44.2131962,487.685483 C42.0679551,489.832078 41.4011646,489.895193 38.7588529,488.201742 Z M720.27617,486.969178 C718.259672,484.571213 718.148682,481.005947 719.941265,476.211707 C721.368831,472.393767 724.6961,469.010525 727.023228,469.010525 C732.343249,469.010525 732.287947,480.509049 726.939502,486.432925 C724.23353,489.429976 722.465186,489.572294 720.27617,486.969178 L720.27617,486.969178 Z M106.385513,467.709742 C96.1006397,462.615624 90.7098038,440.18366 99.3159336,438.292273 C103.842772,437.297386 109.712888,442.192618 113.459596,450.087119 C115.341886,454.053149 115.613503,455.243788 115.673413,459.791199 C115.754325,465.945642 115.084199,467.487975 111.949887,468.35899 C109.011277,469.175583 109.447813,469.226519 106.385513,467.709742 Z M650.565913,468.251873 C648.61024,467.308204 647.729885,463.545882 648.25064,458.357249 C649.220526,448.693334 657.358529,437.96515 663.719286,437.96515 C664.58068,437.96515 666.197403,438.780723 667.31198,439.777545 C669.285173,441.542279 669.337062,441.717791 669.285489,446.452295 C669.138441,459.938762 658.650162,472.152816 650.565913,468.251873 Z M93.313123,412.775185 C92.5483307,412.239178 91.1889775,410.353177 90.2923693,408.584079 C88.8753576,405.788131 88.6537296,404.555638 88.597408,399.158474 C88.5136819,391.136335 89.5118168,387.669983 92.9350187,384.095107 C95.070703,381.864805 95.8396816,381.425742 97.0138876,381.766242 C101.962488,383.201247 104.572878,387.978309 104.879428,396.160261 C105.159102,403.624007 103.906728,408.136181 100.651365,411.393579 C98.0451963,414.001377 95.6941811,414.443995 93.313123,412.775185 Z M663.759706,412.401702 C662.817717,411.660262 661.386634,409.634548 660.579486,407.900123 C658.590428,403.625802 658.456748,393.185669 660.337806,389.038001 C662.078746,385.19968 665.966593,380.887448 667.152936,381.479002 C667.672319,381.738081 668.853807,382.248215 669.778488,382.612792 C673.852291,384.21912 676.26093,391.555086 675.648991,400.492453 C675.262408,406.137924 674.104349,409.500608 671.671367,412.042299 C669.598583,414.207691 666.247463,414.3599 663.759566,412.401702 L663.759706,412.401702 Z M655.687032,359.469274 C647.879114,355.971769 642.951621,340.352437 647.365184,333.090393 C652.083994,325.326031 663.389693,338.087462 663.430572,351.224206 C663.444502,355.745356 662.40848,358.623639 660.375307,359.712442 C658.837209,360.536111 657.968005,360.491019 655.687032,359.469203 L655.687032,359.469274 Z M102.756655,358.192603 C100.262602,354.383816 100.544456,348.164743 103.551807,340.647809 C105.391424,336.049674 109.299886,331.509515 112.003113,330.830628 C119.919347,328.842544 121.309869,344.787627 114.050745,354.310879 C110.025453,359.591738 104.839852,361.373966 102.756655,358.192603 L102.756655,358.192603 Z M122.783484,313.161645 C121.145935,309.640134 120.884167,307.006498 121.694094,302.201698 C122.959027,294.697647 126.428419,290.452332 130.220262,291.768674 C133.127036,292.777783 134.251639,295.822989 133.993953,301.987112 C133.672768,309.670688 130.885146,313.988799 125.453467,315.216717 C124.120533,315.518037 123.744716,315.227277 122.783484,313.161645 L122.783484,313.161645 Z M635.012979,313.144045 C633.658797,312.317912 632.416766,310.712956 631.382818,308.453084 C630.013967,305.461278 629.839162,304.343258 630.028425,299.790568 C630.222966,295.114955 630.419159,294.389743 631.888728,292.919467 C634.273832,290.533189 636.572325,290.737566 639.00383,293.552135 C641.414192,296.342274 642.345874,299.825311 642.345874,306.046179 C642.345874,313.829479 639.945326,316.153099 635.012979,313.144045 L635.012979,313.144045 Z M122.007716,267.874354 C117.896728,264.81116 114.284122,259.456202 114.284122,256.42571 C114.284122,254.443857 117.087047,252.150263 118.880404,252.664656 C122.346068,253.658733 126.833717,258.774922 127.981644,263.040618 C128.574024,265.24195 128.513727,265.956038 127.590559,267.671314 C126.244011,270.173228 125.14653,270.213146 122.007716,267.874424 L122.007716,267.874354 Z M637.629736,268.603226 C636.240059,267.674729 635.439841,265.269512 635.864839,263.298606 C636.874865,258.614722 641.031092,253.444535 644.483317,252.577533 C646.727775,252.013859 649.445355,253.560311 649.673632,255.531076 C650.065667,258.915479 644.631596,266.578005 640.65939,268.241958 C638.344856,269.211535 638.510619,269.191752 637.629736,268.603226 L637.629736,268.603226 Z M383.117971,224.430702 L383.279091,194.423722 L419.114043,171.561038 C438.823276,158.98656 454.949031,148.84655 454.949031,149.027695 C454.949031,149.330071 388.755307,246.371999 384.724492,251.978764 L382.956745,254.437732 L383.117971,224.430702 Z M351.632703,210.882423 C335.592257,187.419702 319.431041,163.775801 315.718879,158.340445 C309.235734,148.847817 309.065643,148.516294 311.407758,149.937219 C312.748818,150.75082 328.975044,161.056099 347.466062,172.837779 L381.08603,194.259087 L381.097097,223.907404 C381.103619,240.213966 381.037483,253.552637 380.951998,253.548836 C380.866512,253.545315 367.672895,234.345179 351.632492,210.882423 L351.632703,210.882423 Z M344.625003,153.41054 C324.730377,140.702861 308.395201,130.069192 308.324554,129.780157 C308.221944,129.359786 378.125432,89.1041301 380.952209,87.9557668 C381.56844,87.7054874 381.727836,96.7788003 381.727836,132.101946 C381.727836,156.555647 381.518521,176.552474 381.262453,176.53935 C381.006349,176.525264 364.519657,166.118254 344.625003,153.41054 L344.625003,153.41054 Z M382.968882,132.198256 L382.968882,87.7298113 L384.365068,88.4741724 C386.932892,89.8431406 453.373116,127.618883 455.148215,128.719162 L456.898583,129.804128 L420.452008,153.028468 C400.406393,165.801832 383.772231,176.345914 383.487175,176.460239 C383.202225,176.573454 382.968882,156.655935 382.968882,132.198256 L382.968882,132.198256 Z M309.50802,124.952616 C310.178039,123.798797 326.631769,95.2124599 346.071917,61.4273878 L381.417592,0 L381.576953,42.4631829 C381.702542,75.9255319 381.569917,85.0807927 380.95643,85.654816 C380.317051,86.2518959 314.806335,123.63388 309.794271,126.261637 L308.289699,127.050457 L309.50802,124.952616 Z M419.114114,106.238092 L382.968882,85.6486558 L382.968882,42.8336738 C382.968882,19.2854143 383.071957,0.135066366 383.197898,0.276561198 C383.323839,0.41956112 398.857108,27.3592642 417.716099,60.1431485 C436.575089,92.9270327 452.937986,121.356831 454.078104,123.32045 C455.218221,125.284069 455.950367,126.876458 455.705134,126.85921 C455.459936,126.841469 438.993859,117.562265 419.113973,106.238092 L419.114114,106.238092 Z" id="path1"></path>
        </g>
    </g>
</svg>