<svg xmlns="http://www.w3.org/2000/svg" viewBox="0 0 1000 430" width="100%" height="100%">
  <defs>
    <marker id="arrow" viewBox="0 0 10 10" refX="8" refY="5" markerWidth="6" markerHeight="6" orient="auto">
      <path d="M 0 0 L 10 5 L 0 10 z" fill="#38bdf8" />
    </marker>
    <marker id="arrow-red" viewBox="0 0 10 10" refX="8" refY="5" markerWidth="6" markerHeight="6" orient="auto">
      <path d="M 0 0 L 10 5 L 0 10 z" fill="#f43f5e" />
    </marker>
  </defs>
  <style>
    .bg { fill: #0f172a; rx: 16px; }
    .subgraph { fill: #1e293b; fill-opacity: 0.3; stroke: #334155; stroke-width: 2; stroke-dasharray: 6 4; rx: 12px; }
    .box { fill: #1e293b; stroke: #475569; stroke-width: 2; rx: 8px; }
    .box-ai { stroke: #a855f7; }
    .box-file { stroke: #eab308; }
    .box-ui { fill: #064e3b; stroke: #10b981; }
    .text { font-family: ui-sans-serif, system-ui, -apple-system, BlinkMacSystemFont, "Segoe UI", Roboto, "Helvetica Neue", Arial, sans-serif; font-size: 14px; font-weight: 600; fill: #f8fafc; text-anchor: middle; dominant-baseline: middle; }
    .text-sm { font-family: ui-sans-serif, system-ui, -apple-system, sans-serif; font-size: 12px; font-weight: 500; fill: #94a3b8; text-anchor: middle; dominant-baseline: middle; }
    .text-ai { fill: #c084fc; }
    .title { font-family: ui-sans-serif, system-ui, -apple-system, sans-serif; font-size: 16px; font-weight: 700; fill: #cbd5e1; }
    .path-anim { fill: none; stroke: #38bdf8; stroke-width: 2; stroke-dasharray: 8 6; animation: flow 1s linear infinite; marker-end: url(#arrow); }
    .path-cross { fill: none; stroke: #f43f5e; stroke-width: 3; stroke-dasharray: 8 6; animation: flow 1s linear infinite; filter: drop-shadow(0 0 4px rgba(244,63,94,0.4)); marker-end: url(#arrow-red); }
    @keyframes flow { to { stroke-dashoffset: -14; } }
  </style>

  <rect width="1000" height="430" class="bg"/>

  <rect x="30" y="40" width="450" height="360" class="subgraph"/>
  <text x="50" y="70" class="title">ethereum/pm (ACDbot)</text>

  <rect x="650" y="40" width="310" height="360" class="subgraph"/>
  <text x="670" y="70" class="title">Forkcast</text>

  <rect x="60" y="100" width="180" height="50" class="box"/>
  <text x="150" y="125" class="text">Zoom API</text>

  <rect x="60" y="200" width="180" height="50" class="box"/>
  <text x="150" y="225" class="text">Download Assets</text>

  <rect x="60" y="300" width="180" height="50" class="box box-ai"/>
  <text x="150" y="316" class="text">Generate Changelog</text>
  <text x="150" y="336" class="text-sm text-ai">Claude Sonnet</text>

  <rect x="270" y="300" width="180" height="50" class="box"/>
  <text x="360" y="325" class="text">Apply Corrections</text>

  <rect x="270" y="200" width="180" height="50" class="box box-ai"/>
  <text x="360" y="216" class="text">Generate Summary</text>
  <text x="360" y="236" class="text-sm text-ai">Claude Sonnet</text>

  <rect x="270" y="100" width="180" height="50" class="box"/>
  <text x="360" y="125" class="text">Generate Manifest</text>

  <path d="M 150 150 L 150 195" class="path-anim"/>
  <path d="M 150 250 L 150 295" class="path-anim"/>
  <path d="M 240 325 L 265 325" class="path-anim"/>
  <path d="M 360 300 L 360 255" class="path-anim"/>
  <path d="M 360 200 L 360 155" class="path-anim"/>

  <path d="M 450 125 L 682 125" class="path-cross"/>
  <text x="555" y="105" class="text" style="fill:#fb7185;">manifest.json</text>
  <text x="555" y="145" class="text-sm" style="fill:#f43f5e;">(raw.githubusercontent.com)</text>

  <rect x="690" y="100" width="230" height="50" class="box"/>
  <text x="805" y="125" class="text">Sync Call Assets</text>

  <rect x="690" y="180" width="230" height="50" class="box box-ai"/>
  <text x="805" y="196" class="text">Extract Key Decisions</text>
  <text x="805" y="216" class="text-sm text-ai">Claude Sonnet</text>

  <rect x="690" y="260" width="230" height="50" class="box box-file"/>
  <text x="805" y="285" class="text" style="fill:#fde047;">protocol-calls.generated.json</text>

  <rect x="690" y="340" width="230" height="50" class="box box-ui"/>
  <text x="805" y="365" class="text" style="fill:#6ee7b7; font-size:16px;">Forkcast Frontend</text>

  <path d="M 805 150 L 805 175" class="path-anim"/>
  <path d="M 805 230 L 805 255" class="path-anim"/>
  <path d="M 805 310 L 805 335" class="path-anim"/>
</svg>
